<svg xmlns="http://www.w3.org/2000/svg" width="160.98" height="44" viewBox="0 0 160.98 44"><g id="レイヤー_2" data-name="レイヤー 2"><g id="レイヤー_1-2" data-name="レイヤー 1"><rect width="8.07" height="8.21" rx="4.04" style="fill:#272343"/><path d="M0,29.31Q0,36.69,4.79,40.5,9.2,44,16.73,44c5,0,12-1.15,14.88-3.44q4.85-3.83,4.84-11.19V12.9A1.5,1.5,0,0,0,35,11.4H29.89a1.51,1.51,0,0,0-1.51,1.5V28.72c0,5.49-5.87,8.23-11.65,8.23s-8.66-2.76-8.66-8.28V12.9c0-.83.52-1.5-.31-1.5H2.7c-.83,0-2.7.67-2.7,1.5Z" style="fill:#272343"/><rect x="28.38" width="8.07" height="8.21" rx="4.04" style="fill:#272343"/><path d="M53.56,41.61H48.43V.6h3.63a1.5,1.5,0,0,1,1.5,1.49V29.48l8.56-8.59h5.7a.49.49,0,0,1,.34.85l-8.47,8.18,8.79,11.69H62.17l-6-8.32-2.65,2.58Z" style="fill:#272343"/><path d="M87.4,39.35a9.72,9.72,0,0,1-6.49,2.26,8.28,8.28,0,0,1-4.8-1.26,5.1,5.1,0,0,1-2.19-4.55q0-7.5,13.48-7.79c0-2.24-1.38-3.37-4.09-3.37a13.71,13.71,0,0,0-7.24,2.41l-1.74-2.86A.88.88,0,0,1,74.68,23a20.74,20.74,0,0,1,9.06-2.26q8.79,0,8.79,6.53v14H87.4Zm0-7.86a27.38,27.38,0,0,0-5.52.72c-2,.58-2.94,1.59-2.94,3s.91,2.37,2.72,2.37a8.6,8.6,0,0,0,5.74-2.55Z" style="fill:#272343"/><path d="M118.59,35A5.67,5.67,0,0,1,116,40a11.65,11.65,0,0,1-6.63,1.62q-7.14,0-9.62-5.17l3.95-1.89a.76.76,0,0,1,1,.32,5,5,0,0,0,4.67,2.79q4,0,4-2.22c0-1-1.14-1.66-3.44-2a47.78,47.78,0,0,1-6.42-1.32,4.81,4.81,0,0,1-3.44-4.74,5.69,5.69,0,0,1,2.36-4.77,11.5,11.5,0,0,1,6.89-1.83q6,0,8.61,3.84a.8.8,0,0,1-.34,1.16L114,27.4q-1.36-2.71-5-2.72c-2.51,0-3.76.64-3.76,1.94,0,1,1.15,1.63,3.44,2a35.23,35.23,0,0,1,6.39,1.33A5.09,5.09,0,0,1,118.59,35Z" style="fill:#272343"/><path d="M138.74,39.35a9.76,9.76,0,0,1-6.49,2.26,8.32,8.32,0,0,1-4.81-1.26,5.1,5.1,0,0,1-2.19-4.55q0-7.5,13.49-7.79c0-2.24-1.39-3.37-4.09-3.37a13.74,13.74,0,0,0-7.25,2.41l-1.76-2.9A.82.82,0,0,1,126,23a20.76,20.76,0,0,1,9.11-2.29q8.79,0,8.79,6.53v14h-5.13Zm0-7.86a27.62,27.62,0,0,0-5.53.72c-2,.58-2.94,1.59-2.94,3s.91,2.37,2.73,2.37a8.6,8.6,0,0,0,5.74-2.55Z" style="fill:#272343"/><path d="M161,41.61h-5.12V25.3h-4.17V21.9a1,1,0,0,1,1-1H161Z" style="fill:#272343"/><rect x="155.28" y="11.84" width="5.7" height="6.06" rx="2.85" style="fill:#272343"/></g></g></svg>