<svg xmlns="http://www.w3.org/2000/svg" width="303.35" height="189.26" viewBox="0 0 303.35 189.26"><g id="レイヤー_2" data-name="レイヤー 2"><g id="レイヤー_1-2" data-name="レイヤー 1"><rect width="13.5" height="13.74" rx="6.75" style="fill:#272343"/><path d="M0,49Q0,61.36,8,67.75q7.38,5.85,20,5.85c8.4,0,20-1.92,24.89-5.76Q61,61.45,61,49.12V21.58a2.51,2.51,0,0,0-2.51-2.51H50a2.51,2.51,0,0,0-2.51,2.51V48c0,9.18-9.83,13.77-19.49,13.77S13.5,57.19,13.5,48V21.58c0-1.39.88-2.51-.51-2.51H4.51C3.12,19.07,0,20.19,0,21.58Z" style="fill:#272343"/><rect x="47.48" width="13.5" height="13.74" rx="6.75" style="fill:#272343"/><path d="M89.59,69.6H81V1h6.08a2.5,2.5,0,0,1,2.5,2.5V49.32l14.32-14.38h9.53a.83.83,0,0,1,.58,1.42L99.85,50l14.7,19.56H104L94,55.68,89.59,60Z" style="fill:#272343"/><path d="M146.2,65.82a16.33,16.33,0,0,1-10.86,3.78,14,14,0,0,1-8-2.1q-3.66-2.46-3.66-7.62,0-12.54,22.56-13-.06-5.64-6.84-5.64-5.7,0-12.12,4l-2.9-4.78a1.44,1.44,0,0,1,.58-2.05,34.72,34.72,0,0,1,15.16-3.79q14.7,0,14.7,10.92V68.88H146.2Zm0-13.14a44.69,44.69,0,0,0-9.24,1.2Q132,55.32,132,59q0,4,4.56,4,4.86,0,9.6-4.26Z" style="fill:#272343"/><path d="M198.37,58.5a9.5,9.5,0,0,1-4.26,8.4q-4,2.7-11.1,2.7-11.94,0-16.08-8.64l6.59-3.17a1.28,1.28,0,0,1,1.68.54A8.37,8.37,0,0,0,183,63q6.72,0,6.72-3.72,0-2.46-5.76-3.42-8.94-1.5-10.74-2.22-5.76-2.28-5.76-7.92a9.52,9.52,0,0,1,4-8q4.2-3.06,11.52-3.06,10.11,0,14.39,6.42a1.34,1.34,0,0,1-.55,1.94l-6,2.8q-2.28-4.56-8.28-4.56-6.3,0-6.3,3.24,0,2.46,5.76,3.3,8.58,1.32,10.68,2.22Q198.37,52.44,198.37,58.5Z" style="fill:#272343"/><path d="M232.07,65.82a16.33,16.33,0,0,1-10.86,3.78,14,14,0,0,1-8-2.1q-3.66-2.46-3.66-7.62,0-12.54,22.56-13-.06-5.64-6.84-5.64-5.7,0-12.12,4l-3-4.85a1.38,1.38,0,0,1,.56-1.94A34.77,34.77,0,0,1,226,34.62q14.7,0,14.7,10.92V68.88h-8.58Zm0-13.14a44.69,44.69,0,0,0-9.24,1.2q-4.92,1.44-4.92,5.1,0,4,4.56,4,4.86,0,9.6-4.26Z" style="fill:#272343"/><path d="M269.29,69.6h-8.58V42.32h-7V36.63a1.69,1.69,0,0,1,1.68-1.69h13.86Z" style="fill:#272343"/><rect x="259.75" y="19.8" width="9.54" height="10.14" rx="4.77" style="fill:#272343"/><path d="M303.35,109c0,7.44-2.37,14.2-7.11,18.28q-6.57,5.58-17.37,5.58H13.68v56.37H0V90.33A3.53,3.53,0,0,1,3.53,86.8H278.87q10.71,0,17.19,5.13Q303.35,97.78,303.35,109Zm-14.13.27a9.92,9.92,0,0,0-2.88-7.47q-3.33-3.24-9.9-3.24H13.68v21.6H276.44q6.3,0,9.72-3.24A10,10,0,0,0,289.22,109.3Z" style="fill:#272343"/><path d="M57.35,171.78q0,8.44-4.29,13t-11.61,4.52q-7.32,0-11.58-4.43-4.5-4.61-4.5-13.05t4.5-13q4.26-4.38,11.58-4.37T53,158.8Q57.35,163.35,57.35,171.78Zm-8.52,0q0-9.93-7.38-9.93T34,171.78q0,10,7.44,10T48.83,171.78Z" style="fill:#272343"/><path d="M91.94,156.38l-2.39,7.28A8.48,8.48,0,0,0,84.39,162a7.25,7.25,0,0,0-5.1,2.34A10.61,10.61,0,0,0,76.47,169v20.26H68V156.89a2.3,2.3,0,0,1,2.29-2.29h6.17v4.2a11.53,11.53,0,0,1,9.78-4.74,12.85,12.85,0,0,1,5,.91A1.14,1.14,0,0,1,91.94,156.38Z" style="fill:#272343"/><path d="M124.07,162h-9.72v16.18q0,2.4.66,3.06t2.94.66h5.94v7.38H115q-5.28,0-7.26-1.89t-2-7.05V162H98.33v-6a1.33,1.33,0,0,1,1.33-1.33h6.11v-7.74a1.62,1.62,0,0,1,1.62-1.62h5.34a1.63,1.63,0,0,1,1.62,1.62v7.74h8.38a1.34,1.34,0,0,1,1.34,1.33Z" style="fill:#272343"/><path d="M160.55,146.92H155q-3.72,0-3.72,4.14v3.54h8.14a1.22,1.22,0,0,1,1.22,1.22v6.1h-9.36v27.34h-8.58V161.92h-7.2v-6.1a1.22,1.22,0,0,1,1.21-1.22h6v-3.66c0-7.52,3.56-10.28,10.68-10.28h4.76a1.7,1.7,0,0,1,1.69,1.46Z" style="fill:#272343"/><path d="M198.81,171.78q0,8.44-4.29,13t-11.61,4.52q-7.32,0-11.58-4.43-4.5-4.61-4.5-13.05t4.5-13q4.26-4.38,11.58-4.37t11.52,4.37Q198.81,163.35,198.81,171.78Zm-8.52,0q0-9.93-7.38-9.93t-7.44,9.93q0,10,7.44,10T190.29,171.78Z" style="fill:#272343"/><path d="M225.49,189.26h-7.74q-4.74,0-6.6-1.8t-1.86-6.36V140.66h6.5a2.08,2.08,0,0,1,2.08,2.08v36.38q0,2.28,1,2.76a5.58,5.58,0,0,0,1.92.24H224a1.52,1.52,0,0,1,1.52,1.52Z" style="fill:#272343"/><path d="M249.29,189.26h-8.58V162h-7v-5.57a1.81,1.81,0,0,1,1.81-1.81h13.73Z" style="fill:#272343"/><rect x="239.75" y="140.66" width="9.54" height="10.14" rx="4.77" style="fill:#272343"/><path d="M293.35,171.78q0,8.44-4.29,13t-11.61,4.52q-7.32,0-11.58-4.43-4.5-4.61-4.5-13.05t4.5-13q4.26-4.38,11.58-4.37T289,158.8Q293.35,163.35,293.35,171.78Zm-8.52,0q0-9.93-7.38-9.93T270,171.78q0,10,7.44,10T284.83,171.78Z" style="fill:#272343"/></g></g></svg>